# xmcd
# 
# Track frame offsets:
#     150
#     17515
#     36962
#     57982
#     75195
#     93002
#     112435
#     125755
#     141652
#     159630
#     168272
# 
# Disc length: 2434
# 
# Revision: 3
# Processed by: cddbd v1.5.2PL0 Copyright (c) Steve Scherf et al.
# Submitted via: fre:ac v1.0.17
# 
DISCID=9009800b
DTITLE=Presuntos Implicados - Alma De Blues
DYEAR=1989
DGENRE=Espanol
TTITLE0=Me Das El Mar
TTITLE1=Alma De Blues
TTITLE2=Río Po
TTITLE3=La Futura Promesa
TTITLE4=No Hay Palabras
TTITLE5=Encadenada
TTITLE6=La Noche
TTITLE7=No Hay Humor
TTITLE8=Cada Historia
TTITLE9=Guitarra Y Voz
TTITLE10=Asoma El Llanto
EXTD=
EXTT0=
EXTT1=
EXTT2=
EXTT3=
EXTT4=
EXTT5=
EXTT6=
EXTT7=
EXTT8=
EXTT9=
EXTT10=
PLAYORDER=
